<?xml version="1.0" encoding="UTF-8" ?>
<svg version="1.1" width="447" height="446" xmlns="http://www.w3.org/2000/svg" shape-rendering="crispEdges">
<rect x="205" y="7" width="37" height="73" fill="#000000" />
<rect x="204" y="8" width="1" height="73" fill="#000000" />
<rect x="242" y="8" width="1" height="73" fill="#000000" />
<rect x="203" y="11" width="1" height="71" fill="#000000" />
<rect x="243" y="12" width="1" height="69" fill="#000000" />
<rect x="202" y="17" width="1" height="65" fill="#000000" />
<rect x="244" y="20" width="1" height="62" fill="#000000" />
<rect x="201" y="23" width="1" height="59" fill="#000000" />
<rect x="131" y="25" width="1" height="89" fill="#000000" />
<rect x="129" y="26" width="2" height="89" fill="#000000" />
<rect x="132" y="26" width="1" height="87" fill="#000000" />
<rect x="127" y="27" width="2" height="90" fill="#000000" />
<rect x="133" y="27" width="1" height="85" fill="#000000" />
<rect x="245" y="27" width="1" height="55" fill="#000000" />
<rect x="315" y="27" width="3" height="86" fill="#000000" />
<rect x="126" y="28" width="1" height="90" fill="#000000" />
<rect x="134" y="28" width="2" height="83" fill="#000000" />
<rect x="200" y="28" width="1" height="54" fill="#000000" />
<rect x="314" y="28" width="1" height="84" fill="#000000" />
<rect x="318" y="28" width="2" height="88" fill="#000000" />
<rect x="124" y="29" width="2" height="90" fill="#000000" />
<rect x="313" y="29" width="1" height="83" fill="#000000" />
<rect x="320" y="29" width="2" height="89" fill="#000000" />
<rect x="122" y="30" width="2" height="91" fill="#000000" />
<rect x="136" y="30" width="1" height="80" fill="#000000" />
<rect x="312" y="30" width="1" height="81" fill="#000000" />
<rect x="322" y="30" width="2" height="89" fill="#000000" />
<rect x="120" y="31" width="2" height="92" fill="#000000" />
<rect x="324" y="31" width="1" height="90" fill="#000000" />
<rect x="119" y="32" width="1" height="93" fill="#000000" />
<rect x="137" y="32" width="1" height="77" fill="#000000" />
<rect x="311" y="32" width="1" height="78" fill="#000000" />
<rect x="325" y="32" width="2" height="90" fill="#000000" />
<rect x="117" y="33" width="2" height="93" fill="#000000" />
<rect x="138" y="33" width="1" height="76" fill="#000000" />
<rect x="327" y="33" width="2" height="91" fill="#000000" />
<rect x="115" y="34" width="2" height="95" fill="#000000" />
<rect x="199" y="34" width="1" height="48" fill="#000000" />
<rect x="246" y="34" width="1" height="48" fill="#000000" />
<rect x="309" y="34" width="2" height="75" fill="#000000" />
<rect x="329" y="34" width="1" height="92" fill="#000000" />
<rect x="114" y="35" width="1" height="96" fill="#000000" />
<rect x="139" y="35" width="2" height="72" fill="#000000" />
<rect x="308" y="35" width="1" height="73" fill="#000000" />
<rect x="330" y="35" width="2" height="93" fill="#000000" />
<rect x="112" y="36" width="2" height="46" fill="#000000" />
<rect x="332" y="36" width="2" height="48" fill="#000000" />
<rect x="110" y="37" width="2" height="40" fill="#000000" />
<rect x="141" y="37" width="1" height="69" fill="#000000" />
<rect x="307" y="37" width="1" height="70" fill="#000000" />
<rect x="334" y="37" width="2" height="43" fill="#000000" />
<rect x="108" y="38" width="2" height="31" fill="#000000" />
<rect x="142" y="38" width="1" height="68" fill="#000000" />
<rect x="305" y="38" width="1" height="68" fill="#000000" />
<rect x="336" y="38" width="1" height="38" fill="#000000" />
<rect x="107" y="39" width="1" height="28" fill="#000000" />
<rect x="198" y="39" width="1" height="43" fill="#000000" />
<rect x="306" y="39" width="1" height="67" fill="#000000" />
<rect x="337" y="39" width="2" height="34" fill="#000000" />
<rect x="105" y="40" width="2" height="22" fill="#000000" />
<rect x="143" y="40" width="1" height="65" fill="#000000" />
<rect x="304" y="40" width="1" height="65" fill="#000000" />
<rect x="339" y="40" width="2" height="27" fill="#000000" />
<rect x="103" y="41" width="2" height="15" fill="#000000" />
<rect x="144" y="41" width="1" height="63" fill="#000000" />
<rect x="341" y="41" width="1" height="25" fill="#000000" />
<rect x="101" y="42" width="2" height="9" fill="#000000" />
<rect x="145" y="42" width="1" height="62" fill="#000000" />
<rect x="247" y="42" width="1" height="40" fill="#000000" />
<rect x="302" y="42" width="2" height="62" fill="#000000" />
<rect x="342" y="42" width="2" height="18" fill="#000000" />
<rect x="100" y="43" width="1" height="4" fill="#000000" />
<rect x="146" y="43" width="1" height="60" fill="#000000" />
<rect x="301" y="43" width="1" height="60" fill="#000000" />
<rect x="344" y="43" width="2" height="12" fill="#000000" />
<rect x="346" y="44" width="2" height="5" fill="#000000" />
<rect x="147" y="45" width="1" height="57" fill="#000000" />
<rect x="197" y="45" width="1" height="38" fill="#000000" />
<rect x="300" y="45" width="1" height="57" fill="#000000" />
<rect x="148" y="46" width="1" height="56" fill="#000000" />
<rect x="348" y="46" width="1" height="1" fill="#000000" />
<rect x="149" y="47" width="1" height="54" fill="#000000" />
<rect x="298" y="47" width="2" height="54" fill="#000000" />
<rect x="100" y="48" width="1" height="1" fill="#000000" />
<rect x="150" y="48" width="1" height="52" fill="#000000" />
<rect x="297" y="48" width="1" height="52" fill="#000000" />
<rect x="248" y="49" width="1" height="33" fill="#000000" />
<rect x="346" y="49" width="1" height="4" fill="#000000" />
<rect x="151" y="50" width="1" height="50" fill="#000000" />
<rect x="195" y="50" width="2" height="33" fill="#000000" />
<rect x="249" y="50" width="4" height="32" fill="#000000" />
<rect x="296" y="50" width="1" height="50" fill="#000000" />
<rect x="347" y="50" width="1" height="1" fill="#000000" />
<rect x="102" y="51" width="1" height="4" fill="#000000" />
<rect x="190" y="51" width="5" height="32" fill="#000000" />
<rect x="253" y="51" width="5" height="32" fill="#000000" />
<rect x="295" y="51" width="1" height="48" fill="#000000" />
<rect x="152" y="52" width="1" height="47" fill="#000000" />
<rect x="185" y="52" width="5" height="32" fill="#000000" />
<rect x="258" y="52" width="5" height="32" fill="#000000" />
<rect x="294" y="52" width="1" height="47" fill="#000000" />
<rect x="153" y="53" width="2" height="45" fill="#000000" />
<rect x="181" y="53" width="4" height="33" fill="#000000" />
<rect x="263" y="53" width="4" height="33" fill="#000000" />
<rect x="293" y="53" width="1" height="45" fill="#000000" />
<rect x="177" y="54" width="4" height="33" fill="#000000" />
<rect x="267" y="54" width="4" height="33" fill="#000000" />
<rect x="155" y="55" width="1" height="43" fill="#000000" />
<rect x="174" y="55" width="3" height="33" fill="#000000" />
<rect x="271" y="55" width="3" height="33" fill="#000000" />
<rect x="292" y="55" width="1" height="43" fill="#000000" />
<rect x="344" y="55" width="1" height="1" fill="#000000" />
<rect x="104" y="56" width="1" height="2" fill="#000000" />
<rect x="170" y="56" width="4" height="33" fill="#000000" />
<rect x="274" y="56" width="4" height="33" fill="#000000" />
<rect x="291" y="56" width="1" height="41" fill="#000000" />
<rect x="156" y="57" width="1" height="40" fill="#000000" />
<rect x="167" y="57" width="3" height="34" fill="#000000" />
<rect x="278" y="57" width="3" height="34" fill="#000000" />
<rect x="290" y="57" width="1" height="40" fill="#000000" />
<rect x="157" y="58" width="2" height="38" fill="#000000" />
<rect x="165" y="58" width="2" height="34" fill="#000000" />
<rect x="281" y="58" width="2" height="34" fill="#000000" />
<rect x="289" y="58" width="1" height="38" fill="#000000" />
<rect x="104" y="59" width="1" height="1" fill="#000000" />
<rect x="162" y="59" width="3" height="34" fill="#000000" />
<rect x="283" y="59" width="3" height="34" fill="#000000" />
<rect x="159" y="60" width="3" height="35" fill="#000000" />
<rect x="286" y="60" width="3" height="35" fill="#000000" />
<rect x="342" y="60" width="1" height="2" fill="#000000" />
<rect x="106" y="62" width="1" height="4" fill="#000000" />
<rect x="339" y="67" width="1" height="2" fill="#000000" />
<rect x="109" y="69" width="1" height="4" fill="#000000" />
<rect x="108" y="70" width="1" height="1" fill="#000000" />
<rect x="337" y="73" width="1" height="2" fill="#000000" />
<rect x="111" y="77" width="1" height="1" fill="#000000" />
<rect x="111" y="80" width="1" height="1" fill="#000000" />
<rect x="205" y="80" width="8" height="1" fill="#000000" />
<rect x="235" y="80" width="7" height="1" fill="#000000" />
<rect x="334" y="80" width="1" height="2" fill="#000000" />
<rect x="113" y="82" width="1" height="2" fill="#000000" />
<rect x="250" y="82" width="3" height="1" fill="#000000" />
<rect x="190" y="83" width="3" height="1" fill="#000000" />
<rect x="255" y="83" width="3" height="1" fill="#000000" />
<rect x="185" y="84" width="4" height="1" fill="#000000" />
<rect x="259" y="84" width="4" height="1" fill="#000000" />
<rect x="332" y="84" width="1" height="46" fill="#000000" />
<rect x="333" y="85" width="1" height="1" fill="#000000" />
<rect x="181" y="86" width="1" height="1" fill="#000000" />
<rect x="266" y="86" width="1" height="1" fill="#000000" />
<rect x="113" y="87" width="1" height="45" fill="#000000" />
<rect x="177" y="87" width="2" height="1" fill="#000000" />
<rect x="269" y="87" width="2" height="1" fill="#000000" />
<rect x="333" y="87" width="2" height="44" fill="#000000" />
<rect x="112" y="88" width="1" height="45" fill="#000000" />
<rect x="174" y="88" width="2" height="1" fill="#000000" />
<rect x="272" y="88" width="2" height="1" fill="#000000" />
<rect x="335" y="88" width="1" height="45" fill="#000000" />
<rect x="111" y="89" width="1" height="46" fill="#000000" />
<rect x="170" y="89" width="3" height="1" fill="#000000" />
<rect x="275" y="89" width="3" height="1" fill="#000000" />
<rect x="336" y="89" width="1" height="46" fill="#000000" />
<rect x="110" y="90" width="1" height="46" fill="#000000" />
<rect x="170" y="90" width="1" height="1" fill="#000000" />
<rect x="277" y="90" width="1" height="1" fill="#000000" />
<rect x="337" y="90" width="1" height="46" fill="#000000" />
<rect x="109" y="91" width="1" height="46" fill="#000000" />
<rect x="167" y="91" width="1" height="1" fill="#000000" />
<rect x="280" y="91" width="1" height="1" fill="#000000" />
<rect x="338" y="91" width="1" height="46" fill="#000000" />
<rect x="108" y="92" width="1" height="47" fill="#000000" />
<rect x="165" y="92" width="1" height="1" fill="#000000" />
<rect x="282" y="92" width="1" height="1" fill="#000000" />
<rect x="339" y="92" width="1" height="47" fill="#000000" />
<rect x="106" y="93" width="2" height="47" fill="#000000" />
<rect x="162" y="93" width="2" height="1" fill="#000000" />
<rect x="284" y="93" width="2" height="1" fill="#000000" />
<rect x="340" y="93" width="2" height="47" fill="#000000" />
<rect x="105" y="94" width="1" height="49" fill="#000000" />
<rect x="342" y="94" width="1" height="49" fill="#000000" />
<rect x="104" y="95" width="1" height="49" fill="#000000" />
<rect x="159" y="95" width="1" height="1" fill="#000000" />
<rect x="288" y="95" width="1" height="1" fill="#000000" />
<rect x="343" y="95" width="1" height="49" fill="#000000" />
<rect x="103" y="96" width="1" height="50" fill="#000000" />
<rect x="157" y="96" width="1" height="1" fill="#000000" />
<rect x="344" y="96" width="1" height="50" fill="#000000" />
<rect x="44" y="97" width="1" height="50" fill="#000000" />
<rect x="102" y="97" width="1" height="50" fill="#000000" />
<rect x="345" y="97" width="1" height="50" fill="#000000" />
<rect x="43" y="98" width="1" height="48" fill="#000000" />
<rect x="45" y="98" width="2" height="49" fill="#000000" />
<rect x="48" y="98" width="1" height="52" fill="#000000" />
<rect x="101" y="98" width="1" height="51" fill="#000000" />
<rect x="153" y="98" width="1" height="1" fill="#000000" />
<rect x="346" y="98" width="1" height="51" fill="#000000" />
<rect x="401" y="98" width="1" height="51" fill="#000000" />
<rect x="403" y="98" width="4" height="47" fill="#000000" />
<rect x="42" y="99" width="1" height="46" fill="#000000" />
<rect x="47" y="99" width="1" height="50" fill="#000000" />
<rect x="49" y="99" width="2" height="53" fill="#000000" />
<rect x="100" y="99" width="1" height="51" fill="#000000" />
<rect x="347" y="99" width="1" height="51" fill="#000000" />
<rect x="399" y="99" width="2" height="50" fill="#000000" />
<rect x="402" y="99" width="1" height="49" fill="#000000" />
<rect x="41" y="100" width="1" height="45" fill="#000000" />
<rect x="51" y="100" width="1" height="53" fill="#000000" />
<rect x="99" y="100" width="1" height="52" fill="#000000" />
<rect x="348" y="100" width="1" height="52" fill="#000000" />
<rect x="398" y="100" width="1" height="51" fill="#000000" />
<rect x="407" y="100" width="1" height="44" fill="#000000" />
<rect x="52" y="101" width="2" height="52" fill="#000000" />
<rect x="98" y="101" width="1" height="53" fill="#000000" />
<rect x="299" y="101" width="1" height="1" fill="#000000" />
<rect x="349" y="101" width="1" height="53" fill="#000000" />
<rect x="394" y="101" width="4" height="50" fill="#000000" />
<rect x="408" y="101" width="1" height="43" fill="#000000" />
<rect x="40" y="102" width="1" height="41" fill="#000000" />
<rect x="54" y="102" width="4" height="54" fill="#000000" />
<rect x="97" y="102" width="1" height="54" fill="#000000" />
<rect x="350" y="102" width="1" height="54" fill="#000000" />
<rect x="392" y="102" width="2" height="53" fill="#000000" />
<rect x="58" y="103" width="2" height="55" fill="#000000" />
<rect x="96" y="103" width="1" height="55" fill="#000000" />
<rect x="351" y="103" width="1" height="55" fill="#000000" />
<rect x="388" y="103" width="4" height="53" fill="#000000" />
<rect x="409" y="103" width="1" height="39" fill="#000000" />
<rect x="39" y="104" width="1" height="39" fill="#000000" />
<rect x="60" y="104" width="1" height="239" fill="#000000" />
<rect x="95" y="104" width="1" height="56" fill="#000000" />
<rect x="352" y="104" width="1" height="56" fill="#000000" />
<rect x="385" y="104" width="1" height="237" fill="#000000" />
<rect x="387" y="104" width="1" height="54" fill="#000000" />
<rect x="61" y="105" width="4" height="236" fill="#000000" />
<rect x="94" y="105" width="1" height="57" fill="#000000" />
<rect x="353" y="105" width="1" height="57" fill="#000000" />
<rect x="383" y="105" width="2" height="235" fill="#000000" />
<rect x="386" y="105" width="1" height="236" fill="#000000" />
<rect x="410" y="105" width="1" height="36" fill="#000000" />
<rect x="38" y="106" width="1" height="36" fill="#000000" />
<rect x="65" y="106" width="2" height="234" fill="#000000" />
<rect x="93" y="106" width="1" height="58" fill="#000000" />
<rect x="354" y="106" width="1" height="58" fill="#000000" />
<rect x="379" y="106" width="1" height="232" fill="#000000" />
<rect x="381" y="106" width="2" height="233" fill="#000000" />
<rect x="37" y="107" width="1" height="34" fill="#000000" />
<rect x="67" y="107" width="3" height="232" fill="#000000" />
<rect x="139" y="107" width="1" height="1" fill="#000000" />
<rect x="377" y="107" width="2" height="231" fill="#000000" />
<rect x="380" y="107" width="1" height="231" fill="#000000" />
<rect x="411" y="107" width="1" height="34" fill="#000000" />
<rect x="70" y="108" width="2" height="231" fill="#000000" />
<rect x="92" y="108" width="1" height="58" fill="#000000" />
<rect x="355" y="108" width="1" height="58" fill="#000000" />
<rect x="374" y="108" width="1" height="228" fill="#000000" />
<rect x="376" y="108" width="1" height="229" fill="#000000" />
<rect x="412" y="108" width="1" height="32" fill="#000000" />
<rect x="36" y="109" width="1" height="31" fill="#000000" />
<rect x="72" y="109" width="2" height="228" fill="#000000" />
<rect x="91" y="109" width="1" height="59" fill="#000000" />
<rect x="356" y="109" width="1" height="59" fill="#000000" />
<rect x="372" y="109" width="2" height="226" fill="#000000" />
<rect x="375" y="109" width="1" height="228" fill="#000000" />
<rect x="74" y="110" width="2" height="227" fill="#000000" />
<rect x="77" y="110" width="1" height="226" fill="#000000" />
<rect x="90" y="110" width="1" height="61" fill="#000000" />
<rect x="357" y="110" width="1" height="61" fill="#000000" />
<rect x="368" y="110" width="1" height="224" fill="#000000" />
<rect x="370" y="110" width="2" height="225" fill="#000000" />
<rect x="413" y="110" width="1" height="30" fill="#000000" />
<rect x="35" y="111" width="1" height="28" fill="#000000" />
<rect x="76" y="111" width="1" height="226" fill="#000000" />
<rect x="78" y="111" width="1" height="225" fill="#000000" />
<rect x="89" y="111" width="1" height="62" fill="#000000" />
<rect x="134" y="111" width="1" height="1" fill="#000000" />
<rect x="358" y="111" width="1" height="62" fill="#000000" />
<rect x="367" y="111" width="1" height="102" fill="#000000" />
<rect x="369" y="111" width="1" height="223" fill="#000000" />
<rect x="34" y="112" width="1" height="26" fill="#000000" />
<rect x="79" y="112" width="2" height="101" fill="#000000" />
<rect x="88" y="112" width="1" height="64" fill="#000000" />
<rect x="359" y="112" width="1" height="64" fill="#000000" />
<rect x="365" y="112" width="2" height="86" fill="#000000" />
<rect x="414" y="112" width="1" height="27" fill="#000000" />
<rect x="81" y="113" width="4" height="76" fill="#000000" />
<rect x="87" y="113" width="1" height="66" fill="#000000" />
<rect x="316" y="113" width="2" height="1" fill="#000000" />
<rect x="360" y="113" width="5" height="66" fill="#000000" />
<rect x="33" y="114" width="1" height="24" fill="#000000" />
<rect x="85" y="114" width="2" height="68" fill="#000000" />
<rect x="317" y="114" width="1" height="1" fill="#000000" />
<rect x="415" y="114" width="1" height="23" fill="#000000" />
<rect x="129" y="115" width="1" height="1" fill="#000000" />
<rect x="416" y="115" width="1" height="22" fill="#000000" />
<rect x="32" y="116" width="1" height="21" fill="#000000" />
<rect x="319" y="116" width="1" height="1" fill="#000000" />
<rect x="127" y="117" width="1" height="1" fill="#000000" />
<rect x="417" y="117" width="1" height="19" fill="#000000" />
<rect x="31" y="118" width="1" height="18" fill="#000000" />
<rect x="30" y="119" width="1" height="16" fill="#000000" />
<rect x="124" y="119" width="1" height="1" fill="#000000" />
<rect x="323" y="119" width="1" height="1" fill="#000000" />
<rect x="418" y="119" width="1" height="17" fill="#000000" />
<rect x="419" y="120" width="1" height="15" fill="#000000" />
<rect x="29" y="121" width="1" height="13" fill="#000000" />
<rect x="122" y="121" width="1" height="1" fill="#000000" />
<rect x="326" y="122" width="1" height="1" fill="#000000" />
<rect x="420" y="122" width="1" height="12" fill="#000000" />
<rect x="28" y="123" width="1" height="11" fill="#000000" />
<rect x="120" y="123" width="1" height="1" fill="#000000" />
<rect x="27" y="124" width="1" height="8" fill="#000000" />
<rect x="328" y="124" width="1" height="1" fill="#000000" />
<rect x="421" y="124" width="1" height="9" fill="#000000" />
<rect x="26" y="126" width="1" height="6" fill="#000000" />
<rect x="117" y="126" width="1" height="2" fill="#000000" />
<rect x="422" y="126" width="1" height="6" fill="#000000" />
<rect x="423" y="127" width="1" height="5" fill="#000000" />
<rect x="25" y="128" width="1" height="3" fill="#000000" />
<rect x="331" y="128" width="1" height="1" fill="#000000" />
<rect x="115" y="129" width="1" height="1" fill="#000000" />
<rect x="424" y="129" width="1" height="1" fill="#000000" />
<rect x="334" y="131" width="1" height="1" fill="#000000" />
<rect x="106" y="140" width="1" height="1" fill="#000000" />
<rect x="341" y="140" width="1" height="1" fill="#000000" />
<rect x="403" y="145" width="2" height="1" fill="#000000" />
<rect x="403" y="146" width="1" height="1" fill="#000000" />
<rect x="46" y="147" width="1" height="2" fill="#000000" />
<rect x="399" y="149" width="1" height="1" fill="#000000" />
<rect x="394" y="151" width="3" height="2" fill="#000000" />
<rect x="53" y="153" width="1" height="1" fill="#000000" />
<rect x="394" y="153" width="1" height="1" fill="#000000" />
<rect x="56" y="156" width="2" height="1" fill="#000000" />
<rect x="388" y="156" width="3" height="1" fill="#000000" />
<rect x="388" y="157" width="2" height="1" fill="#000000" />
<rect x="59" y="158" width="1" height="2" fill="#000000" />
<rect x="388" y="158" width="1" height="1" fill="#000000" />
<rect x="387" y="159" width="1" height="182" fill="#000000" />
<rect x="59" y="162" width="1" height="124" fill="#000000" />
<rect x="388" y="162" width="1" height="124" fill="#000000" />
<rect x="58" y="165" width="1" height="118" fill="#000000" />
<rect x="389" y="165" width="1" height="118" fill="#000000" />
<rect x="131" y="166" width="187" height="8" fill="#3E4047" />
<rect x="57" y="167" width="1" height="114" fill="#000000" />
<rect x="390" y="167" width="1" height="114" fill="#000000" />
<rect x="56" y="170" width="1" height="108" fill="#000000" />
<rect x="391" y="170" width="1" height="108" fill="#000000" />
<rect x="55" y="174" width="1" height="100" fill="#000000" />
<rect x="131" y="174" width="7" height="52" fill="#3E4047" />
<rect x="138" y="174" width="8" height="7" fill="#5A5F61" />
<rect x="146" y="174" width="157" height="7" fill="#727678" />
<rect x="303" y="174" width="8" height="7" fill="#5A5F61" />
<rect x="311" y="174" width="7" height="52" fill="#3E4047" />
<rect x="392" y="174" width="1" height="100" fill="#000000" />
<rect x="54" y="177" width="1" height="94" fill="#000000" />
<rect x="393" y="177" width="1" height="94" fill="#000000" />
<rect x="361" y="179" width="4" height="3" fill="#000000" />
<rect x="53" y="181" width="1" height="86" fill="#000000" />
<rect x="138" y="181" width="8" height="38" fill="#727678" />
<rect x="146" y="181" width="157" height="38" fill="#84888A" />
<rect x="303" y="181" width="8" height="38" fill="#727678" />
<rect x="394" y="181" width="1" height="86" fill="#000000" />
<rect x="85" y="182" width="1" height="3" fill="#000000" />
<rect x="362" y="182" width="3" height="3" fill="#000000" />
<rect x="52" y="185" width="1" height="78" fill="#000000" />
<rect x="363" y="185" width="2" height="4" fill="#000000" />
<rect x="395" y="185" width="1" height="78" fill="#000000" />
<rect x="81" y="189" width="3" height="4" fill="#000000" />
<rect x="364" y="189" width="1" height="4" fill="#000000" />
<rect x="51" y="190" width="1" height="68" fill="#000000" />
<rect x="396" y="190" width="1" height="68" fill="#000000" />
<rect x="81" y="193" width="2" height="5" fill="#000000" />
<rect x="50" y="195" width="1" height="58" fill="#000000" />
<rect x="397" y="195" width="1" height="58" fill="#000000" />
<rect x="47" y="197" width="3" height="52" fill="#000000" />
<rect x="398" y="197" width="6" height="51" fill="#000000" />
<rect x="40" y="198" width="7" height="50" fill="#000000" />
<rect x="81" y="198" width="1" height="6" fill="#000000" />
<rect x="366" y="198" width="1" height="6" fill="#000000" />
<rect x="404" y="198" width="6" height="49" fill="#000000" />
<rect x="32" y="199" width="8" height="48" fill="#000000" />
<rect x="410" y="199" width="5" height="48" fill="#000000" />
<rect x="25" y="200" width="7" height="45" fill="#000000" />
<rect x="415" y="200" width="6" height="46" fill="#000000" />
<rect x="18" y="201" width="7" height="43" fill="#000000" />
<rect x="421" y="201" width="5" height="44" fill="#000000" />
<rect x="10" y="202" width="8" height="41" fill="#000000" />
<rect x="426" y="202" width="6" height="42" fill="#000000" />
<rect x="6" y="203" width="4" height="39" fill="#000000" />
<rect x="432" y="203" width="6" height="40" fill="#000000" />
<rect x="5" y="204" width="1" height="37" fill="#000000" />
<rect x="438" y="204" width="3" height="39" fill="#000000" />
<rect x="441" y="205" width="1" height="37" fill="#000000" />
<rect x="79" y="213" width="1" height="122" fill="#000000" />
<rect x="138" y="219" width="8" height="7" fill="#84888A" />
<rect x="146" y="219" width="157" height="7" fill="#A3A7A8" />
<rect x="303" y="219" width="8" height="7" fill="#84888A" />
<rect x="131" y="226" width="7" height="68" fill="#2B2C33" />
<rect x="138" y="226" width="173" height="8" fill="#3E4047" />
<rect x="311" y="226" width="7" height="68" fill="#2B2C33" />
<rect x="138" y="234" width="8" height="45" fill="#4A4D52" />
<rect x="146" y="234" width="52" height="7" fill="#727678" />
<rect x="198" y="234" width="8" height="7" fill="#3E4047" />
<rect x="206" y="234" width="7" height="7" fill="#4A4D52" />
<rect x="213" y="234" width="23" height="7" fill="#727678" />
<rect x="236" y="234" width="7" height="7" fill="#4A4D52" />
<rect x="243" y="234" width="8" height="7" fill="#3E4047" />
<rect x="251" y="234" width="52" height="7" fill="#727678" />
<rect x="303" y="234" width="8" height="45" fill="#4A4D52" />
<rect x="80" y="235" width="1" height="101" fill="#000000" />
<rect x="367" y="235" width="1" height="98" fill="#000000" />
<rect x="146" y="241" width="60" height="38" fill="#5A5F61" />
<rect x="206" y="241" width="7" height="8" fill="#3E4047" />
<rect x="213" y="241" width="23" height="8" fill="#4A4D52" />
<rect x="236" y="241" width="7" height="8" fill="#3E4047" />
<rect x="243" y="241" width="60" height="38" fill="#5A5F61" />
<rect x="9" y="242" width="1" height="1" fill="#000000" />
<rect x="15" y="243" width="3" height="1" fill="#000000" />
<rect x="432" y="243" width="5" height="1" fill="#000000" />
<rect x="21" y="244" width="4" height="1" fill="#000000" />
<rect x="81" y="244" width="1" height="91" fill="#000000" />
<rect x="366" y="244" width="1" height="89" fill="#000000" />
<rect x="426" y="244" width="3" height="1" fill="#000000" />
<rect x="26" y="245" width="6" height="1" fill="#000000" />
<rect x="421" y="245" width="1" height="1" fill="#000000" />
<rect x="37" y="247" width="3" height="1" fill="#000000" />
<rect x="404" y="247" width="3" height="1" fill="#000000" />
<rect x="43" y="248" width="4" height="1" fill="#000000" />
<rect x="398" y="248" width="2" height="1" fill="#000000" />
<rect x="49" y="249" width="1" height="1" fill="#000000" />
<rect x="206" y="249" width="37" height="30" fill="#5A5F61" />
<rect x="82" y="250" width="1" height="84" fill="#000000" />
<rect x="365" y="250" width="1" height="82" fill="#000000" />
<rect x="83" y="255" width="1" height="79" fill="#000000" />
<rect x="364" y="255" width="1" height="78" fill="#000000" />
<rect x="84" y="259" width="1" height="74" fill="#000000" />
<rect x="363" y="259" width="1" height="73" fill="#000000" />
<rect x="85" y="263" width="1" height="70" fill="#000000" />
<rect x="362" y="263" width="1" height="69" fill="#000000" />
<rect x="86" y="266" width="1" height="67" fill="#000000" />
<rect x="361" y="266" width="1" height="67" fill="#000000" />
<rect x="87" y="269" width="1" height="66" fill="#000000" />
<rect x="360" y="269" width="1" height="66" fill="#000000" />
<rect x="88" y="272" width="1" height="64" fill="#000000" />
<rect x="359" y="272" width="1" height="64" fill="#000000" />
<rect x="89" y="275" width="1" height="62" fill="#000000" />
<rect x="358" y="275" width="1" height="62" fill="#000000" />
<rect x="90" y="277" width="1" height="61" fill="#000000" />
<rect x="357" y="277" width="1" height="61" fill="#000000" />
<rect x="138" y="279" width="8" height="7" fill="#3E4047" />
<rect x="146" y="279" width="157" height="7" fill="#4A4D52" />
<rect x="303" y="279" width="8" height="7" fill="#3E4047" />
<rect x="91" y="280" width="1" height="59" fill="#000000" />
<rect x="356" y="280" width="1" height="59" fill="#000000" />
<rect x="92" y="282" width="1" height="58" fill="#000000" />
<rect x="355" y="282" width="1" height="58" fill="#000000" />
<rect x="93" y="284" width="1" height="58" fill="#000000" />
<rect x="354" y="284" width="1" height="58" fill="#000000" />
<rect x="94" y="286" width="1" height="57" fill="#000000" />
<rect x="138" y="286" width="173" height="8" fill="#2B2C33" />
<rect x="353" y="286" width="1" height="57" fill="#000000" />
<rect x="59" y="288" width="1" height="55" fill="#000000" />
<rect x="95" y="288" width="1" height="56" fill="#000000" />
<rect x="352" y="288" width="1" height="56" fill="#000000" />
<rect x="58" y="289" width="1" height="54" fill="#000000" />
<rect x="388" y="289" width="1" height="53" fill="#000000" />
<rect x="57" y="290" width="1" height="53" fill="#000000" />
<rect x="96" y="290" width="1" height="55" fill="#000000" />
<rect x="351" y="290" width="1" height="55" fill="#000000" />
<rect x="389" y="290" width="2" height="52" fill="#000000" />
<rect x="55" y="291" width="2" height="53" fill="#000000" />
<rect x="391" y="291" width="2" height="53" fill="#000000" />
<rect x="54" y="292" width="1" height="53" fill="#000000" />
<rect x="97" y="292" width="1" height="54" fill="#000000" />
<rect x="350" y="292" width="1" height="54" fill="#000000" />
<rect x="52" y="293" width="2" height="52" fill="#000000" />
<rect x="393" y="293" width="1" height="52" fill="#000000" />
<rect x="98" y="294" width="1" height="53" fill="#000000" />
<rect x="349" y="294" width="1" height="53" fill="#000000" />
<rect x="394" y="294" width="2" height="50" fill="#000000" />
<rect x="50" y="295" width="2" height="50" fill="#000000" />
<rect x="49" y="296" width="1" height="51" fill="#000000" />
<rect x="99" y="296" width="1" height="52" fill="#000000" />
<rect x="348" y="296" width="1" height="52" fill="#000000" />
<rect x="396" y="296" width="2" height="49" fill="#000000" />
<rect x="47" y="297" width="2" height="50" fill="#000000" />
<rect x="398" y="297" width="1" height="48" fill="#000000" />
<rect x="46" y="298" width="1" height="49" fill="#000000" />
<rect x="100" y="298" width="1" height="51" fill="#000000" />
<rect x="347" y="298" width="1" height="51" fill="#000000" />
<rect x="399" y="298" width="2" height="45" fill="#000000" />
<rect x="101" y="299" width="1" height="51" fill="#000000" />
<rect x="346" y="299" width="1" height="51" fill="#000000" />
<rect x="44" y="300" width="2" height="48" fill="#000000" />
<rect x="401" y="300" width="2" height="39" fill="#000000" />
<rect x="42" y="301" width="2" height="47" fill="#000000" />
<rect x="102" y="301" width="1" height="50" fill="#000000" />
<rect x="345" y="301" width="1" height="50" fill="#000000" />
<rect x="403" y="301" width="1" height="36" fill="#000000" />
<rect x="40" y="302" width="2" height="43" fill="#000000" />
<rect x="103" y="302" width="1" height="50" fill="#000000" />
<rect x="344" y="302" width="1" height="50" fill="#000000" />
<rect x="404" y="302" width="1" height="34" fill="#000000" />
<rect x="405" y="303" width="1" height="31" fill="#000000" />
<rect x="39" y="304" width="1" height="39" fill="#000000" />
<rect x="104" y="304" width="1" height="49" fill="#000000" />
<rect x="343" y="304" width="1" height="49" fill="#000000" />
<rect x="406" y="304" width="1" height="28" fill="#000000" />
<rect x="37" y="305" width="2" height="34" fill="#000000" />
<rect x="105" y="305" width="1" height="49" fill="#000000" />
<rect x="342" y="305" width="1" height="49" fill="#000000" />
<rect x="407" y="305" width="2" height="24" fill="#000000" />
<rect x="35" y="306" width="2" height="30" fill="#000000" />
<rect x="409" y="306" width="1" height="21" fill="#000000" />
<rect x="34" y="307" width="1" height="27" fill="#000000" />
<rect x="106" y="307" width="1" height="48" fill="#000000" />
<rect x="341" y="307" width="1" height="48" fill="#000000" />
<rect x="410" y="307" width="1" height="18" fill="#000000" />
<rect x="107" y="308" width="1" height="47" fill="#000000" />
<rect x="340" y="308" width="1" height="47" fill="#000000" />
<rect x="411" y="308" width="1" height="16" fill="#000000" />
<rect x="32" y="309" width="2" height="22" fill="#000000" />
<rect x="108" y="309" width="1" height="47" fill="#000000" />
<rect x="339" y="309" width="1" height="47" fill="#000000" />
<rect x="412" y="309" width="2" height="11" fill="#000000" />
<rect x="30" y="310" width="2" height="17" fill="#000000" />
<rect x="29" y="311" width="1" height="15" fill="#000000" />
<rect x="109" y="311" width="1" height="46" fill="#000000" />
<rect x="338" y="311" width="1" height="46" fill="#000000" />
<rect x="414" y="311" width="2" height="6" fill="#000000" />
<rect x="28" y="312" width="1" height="12" fill="#000000" />
<rect x="110" y="312" width="1" height="46" fill="#000000" />
<rect x="337" y="312" width="1" height="46" fill="#000000" />
<rect x="416" y="312" width="1" height="3" fill="#000000" />
<rect x="27" y="313" width="1" height="9" fill="#000000" />
<rect x="111" y="313" width="1" height="46" fill="#000000" />
<rect x="336" y="313" width="1" height="46" fill="#000000" />
<rect x="25" y="314" width="2" height="5" fill="#000000" />
<rect x="112" y="315" width="1" height="45" fill="#000000" />
<rect x="335" y="315" width="1" height="45" fill="#000000" />
<rect x="24" y="316" width="1" height="1" fill="#000000" />
<rect x="113" y="316" width="1" height="96" fill="#000000" />
<rect x="334" y="316" width="1" height="45" fill="#000000" />
<rect x="114" y="317" width="1" height="96" fill="#000000" />
<rect x="333" y="317" width="1" height="45" fill="#000000" />
<rect x="414" y="317" width="1" height="2" fill="#000000" />
<rect x="115" y="318" width="1" height="95" fill="#000000" />
<rect x="332" y="318" width="1" height="88" fill="#000000" />
<rect x="26" y="319" width="1" height="1" fill="#000000" />
<rect x="116" y="319" width="1" height="95" fill="#000000" />
<rect x="331" y="319" width="1" height="87" fill="#000000" />
<rect x="117" y="320" width="1" height="95" fill="#000000" />
<rect x="330" y="320" width="1" height="87" fill="#000000" />
<rect x="412" y="320" width="1" height="2" fill="#000000" />
<rect x="118" y="322" width="1" height="93" fill="#000000" />
<rect x="329" y="322" width="1" height="86" fill="#000000" />
<rect x="119" y="323" width="1" height="93" fill="#000000" />
<rect x="328" y="323" width="1" height="85" fill="#000000" />
<rect x="120" y="324" width="1" height="92" fill="#000000" />
<rect x="327" y="324" width="1" height="85" fill="#000000" />
<rect x="121" y="325" width="1" height="92" fill="#000000" />
<rect x="326" y="325" width="1" height="84" fill="#000000" />
<rect x="122" y="326" width="1" height="92" fill="#000000" />
<rect x="325" y="326" width="1" height="84" fill="#000000" />
<rect x="31" y="327" width="1" height="2" fill="#000000" />
<rect x="123" y="327" width="1" height="91" fill="#000000" />
<rect x="324" y="327" width="1" height="84" fill="#000000" />
<rect x="124" y="328" width="1" height="91" fill="#000000" />
<rect x="323" y="328" width="1" height="83" fill="#000000" />
<rect x="125" y="329" width="1" height="90" fill="#000000" />
<rect x="322" y="329" width="1" height="83" fill="#000000" />
<rect x="407" y="329" width="1" height="2" fill="#000000" />
<rect x="126" y="330" width="2" height="90" fill="#000000" />
<rect x="320" y="330" width="2" height="82" fill="#000000" />
<rect x="33" y="331" width="1" height="1" fill="#000000" />
<rect x="128" y="331" width="1" height="90" fill="#000000" />
<rect x="319" y="331" width="1" height="82" fill="#000000" />
<rect x="129" y="332" width="1" height="89" fill="#000000" />
<rect x="318" y="332" width="1" height="82" fill="#000000" />
<rect x="130" y="333" width="1" height="88" fill="#000000" />
<rect x="317" y="333" width="1" height="82" fill="#000000" />
<rect x="131" y="334" width="1" height="86" fill="#000000" />
<rect x="316" y="334" width="1" height="81" fill="#000000" />
<rect x="132" y="335" width="1" height="84" fill="#000000" />
<rect x="315" y="335" width="1" height="81" fill="#000000" />
<rect x="372" y="335" width="1" height="1" fill="#000000" />
<rect x="36" y="336" width="1" height="2" fill="#000000" />
<rect x="133" y="336" width="2" height="80" fill="#000000" />
<rect x="313" y="336" width="2" height="80" fill="#000000" />
<rect x="72" y="337" width="1" height="1" fill="#000000" />
<rect x="74" y="337" width="1" height="1" fill="#000000" />
<rect x="135" y="337" width="1" height="77" fill="#000000" />
<rect x="312" y="337" width="1" height="79" fill="#000000" />
<rect x="136" y="338" width="1" height="76" fill="#000000" />
<rect x="311" y="338" width="1" height="77" fill="#000000" />
<rect x="38" y="339" width="1" height="2" fill="#000000" />
<rect x="67" y="339" width="1" height="1" fill="#000000" />
<rect x="69" y="339" width="1" height="1" fill="#000000" />
<rect x="137" y="339" width="2" height="72" fill="#000000" />
<rect x="309" y="339" width="2" height="75" fill="#000000" />
<rect x="382" y="339" width="1" height="1" fill="#000000" />
<rect x="401" y="339" width="1" height="2" fill="#000000" />
<rect x="65" y="340" width="1" height="1" fill="#000000" />
<rect x="139" y="340" width="1" height="69" fill="#000000" />
<rect x="308" y="340" width="1" height="72" fill="#000000" />
<rect x="384" y="340" width="1" height="1" fill="#000000" />
<rect x="61" y="341" width="1" height="1" fill="#000000" />
<rect x="63" y="341" width="1" height="1" fill="#000000" />
<rect x="140" y="341" width="1" height="69" fill="#000000" />
<rect x="307" y="341" width="1" height="69" fill="#000000" />
<rect x="141" y="342" width="2" height="64" fill="#000000" />
<rect x="305" y="342" width="2" height="65" fill="#000000" />
<rect x="390" y="342" width="1" height="1" fill="#000000" />
<rect x="143" y="343" width="1" height="63" fill="#000000" />
<rect x="304" y="343" width="1" height="64" fill="#000000" />
<rect x="399" y="343" width="1" height="1" fill="#000000" />
<rect x="144" y="344" width="2" height="59" fill="#000000" />
<rect x="302" y="344" width="2" height="60" fill="#000000" />
<rect x="395" y="344" width="1" height="1" fill="#000000" />
<rect x="41" y="345" width="1" height="1" fill="#000000" />
<rect x="50" y="345" width="1" height="1" fill="#000000" />
<rect x="146" y="345" width="1" height="56" fill="#000000" />
<rect x="301" y="345" width="1" height="57" fill="#000000" />
<rect x="397" y="345" width="1" height="1" fill="#000000" />
<rect x="147" y="346" width="2" height="54" fill="#000000" />
<rect x="299" y="346" width="2" height="54" fill="#000000" />
<rect x="47" y="347" width="1" height="1" fill="#000000" />
<rect x="149" y="347" width="1" height="51" fill="#000000" />
<rect x="298" y="347" width="1" height="52" fill="#000000" />
<rect x="150" y="348" width="2" height="48" fill="#000000" />
<rect x="296" y="348" width="2" height="48" fill="#000000" />
<rect x="152" y="349" width="2" height="44" fill="#000000" />
<rect x="294" y="349" width="2" height="45" fill="#000000" />
<rect x="154" y="350" width="2" height="41" fill="#000000" />
<rect x="292" y="350" width="2" height="40" fill="#000000" />
<rect x="156" y="351" width="2" height="37" fill="#000000" />
<rect x="290" y="351" width="2" height="38" fill="#000000" />
<rect x="158" y="352" width="2" height="36" fill="#000000" />
<rect x="288" y="352" width="2" height="35" fill="#000000" />
<rect x="160" y="353" width="2" height="35" fill="#000000" />
<rect x="286" y="353" width="2" height="35" fill="#000000" />
<rect x="162" y="354" width="2" height="35" fill="#000000" />
<rect x="284" y="354" width="2" height="35" fill="#000000" />
<rect x="164" y="355" width="2" height="34" fill="#000000" />
<rect x="282" y="355" width="2" height="34" fill="#000000" />
<rect x="166" y="356" width="2" height="34" fill="#000000" />
<rect x="280" y="356" width="2" height="34" fill="#000000" />
<rect x="168" y="357" width="3" height="34" fill="#000000" />
<rect x="277" y="357" width="3" height="34" fill="#000000" />
<rect x="171" y="358" width="2" height="34" fill="#000000" />
<rect x="275" y="358" width="2" height="34" fill="#000000" />
<rect x="173" y="359" width="3" height="33" fill="#000000" />
<rect x="272" y="359" width="3" height="33" fill="#000000" />
<rect x="176" y="360" width="3" height="33" fill="#000000" />
<rect x="269" y="360" width="3" height="33" fill="#000000" />
<rect x="179" y="361" width="3" height="33" fill="#000000" />
<rect x="266" y="361" width="3" height="33" fill="#000000" />
<rect x="112" y="362" width="1" height="1" fill="#000000" />
<rect x="182" y="362" width="3" height="33" fill="#000000" />
<rect x="263" y="362" width="3" height="33" fill="#000000" />
<rect x="185" y="363" width="4" height="33" fill="#000000" />
<rect x="259" y="363" width="4" height="33" fill="#000000" />
<rect x="112" y="364" width="1" height="48" fill="#000000" />
<rect x="189" y="364" width="4" height="32" fill="#000000" />
<rect x="255" y="364" width="4" height="32" fill="#000000" />
<rect x="333" y="364" width="1" height="41" fill="#000000" />
<rect x="193" y="365" width="5" height="32" fill="#000000" />
<rect x="250" y="365" width="5" height="32" fill="#000000" />
<rect x="334" y="365" width="1" height="40" fill="#000000" />
<rect x="111" y="366" width="1" height="45" fill="#000000" />
<rect x="198" y="366" width="6" height="32" fill="#000000" />
<rect x="244" y="366" width="6" height="33" fill="#000000" />
<rect x="204" y="367" width="9" height="69" fill="#000000" />
<rect x="235" y="367" width="9" height="66" fill="#000000" />
<rect x="110" y="368" width="1" height="43" fill="#000000" />
<rect x="213" y="368" width="22" height="69" fill="#000000" />
<rect x="335" y="369" width="1" height="35" fill="#000000" />
<rect x="336" y="371" width="1" height="1" fill="#000000" />
<rect x="109" y="372" width="1" height="38" fill="#000000" />
<rect x="108" y="373" width="1" height="36" fill="#000000" />
<rect x="336" y="373" width="1" height="31" fill="#000000" />
<rect x="107" y="375" width="1" height="34" fill="#000000" />
<rect x="337" y="375" width="1" height="28" fill="#000000" />
<rect x="338" y="376" width="1" height="26" fill="#000000" />
<rect x="106" y="379" width="1" height="29" fill="#000000" />
<rect x="339" y="380" width="1" height="22" fill="#000000" />
<rect x="105" y="381" width="1" height="27" fill="#000000" />
<rect x="104" y="382" width="1" height="25" fill="#000000" />
<rect x="340" y="382" width="1" height="1" fill="#000000" />
<rect x="340" y="384" width="1" height="17" fill="#000000" />
<rect x="103" y="386" width="1" height="20" fill="#000000" />
<rect x="341" y="386" width="1" height="15" fill="#000000" />
<rect x="288" y="387" width="1" height="1" fill="#000000" />
<rect x="342" y="387" width="1" height="13" fill="#000000" />
<rect x="102" y="388" width="1" height="18" fill="#000000" />
<rect x="156" y="388" width="1" height="2" fill="#000000" />
<rect x="165" y="389" width="1" height="1" fill="#000000" />
<rect x="282" y="389" width="1" height="1" fill="#000000" />
<rect x="167" y="390" width="1" height="1" fill="#000000" />
<rect x="280" y="390" width="1" height="1" fill="#000000" />
<rect x="293" y="390" width="1" height="2" fill="#000000" />
<rect x="154" y="391" width="1" height="1" fill="#000000" />
<rect x="170" y="391" width="1" height="1" fill="#000000" />
<rect x="277" y="391" width="1" height="1" fill="#000000" />
<rect x="343" y="391" width="1" height="9" fill="#000000" />
<rect x="101" y="392" width="1" height="13" fill="#000000" />
<rect x="174" y="392" width="2" height="1" fill="#000000" />
<rect x="272" y="392" width="2" height="1" fill="#000000" />
<rect x="100" y="393" width="1" height="12" fill="#000000" />
<rect x="152" y="393" width="1" height="2" fill="#000000" />
<rect x="177" y="393" width="2" height="1" fill="#000000" />
<rect x="269" y="393" width="2" height="1" fill="#000000" />
<rect x="344" y="393" width="1" height="1" fill="#000000" />
<rect x="181" y="394" width="1" height="1" fill="#000000" />
<rect x="266" y="394" width="1" height="1" fill="#000000" />
<rect x="295" y="394" width="1" height="1" fill="#000000" />
<rect x="99" y="395" width="1" height="9" fill="#000000" />
<rect x="344" y="395" width="1" height="4" fill="#000000" />
<rect x="150" y="396" width="1" height="1" fill="#000000" />
<rect x="190" y="396" width="3" height="1" fill="#000000" />
<rect x="255" y="396" width="3" height="1" fill="#000000" />
<rect x="297" y="396" width="1" height="1" fill="#000000" />
<rect x="98" y="397" width="1" height="1" fill="#000000" />
<rect x="195" y="397" width="3" height="1" fill="#000000" />
<rect x="250" y="397" width="3" height="1" fill="#000000" />
<rect x="199" y="398" width="5" height="4" fill="#000000" />
<rect x="98" y="399" width="1" height="5" fill="#000000" />
<rect x="244" y="399" width="5" height="6" fill="#000000" />
<rect x="147" y="400" width="1" height="1" fill="#000000" />
<rect x="300" y="400" width="1" height="1" fill="#000000" />
<rect x="97" y="401" width="1" height="1" fill="#000000" />
<rect x="200" y="402" width="4" height="8" fill="#000000" />
<rect x="144" y="403" width="1" height="2" fill="#000000" />
<rect x="303" y="404" width="1" height="1" fill="#000000" />
<rect x="244" y="405" width="4" height="5" fill="#000000" />
<rect x="141" y="406" width="1" height="2" fill="#000000" />
<rect x="306" y="407" width="1" height="2" fill="#000000" />
<rect x="201" y="410" width="3" height="7" fill="#000000" />
<rect x="244" y="410" width="3" height="6" fill="#000000" />
<rect x="137" y="411" width="1" height="2" fill="#000000" />
<rect x="320" y="412" width="1" height="1" fill="#000000" />
<rect x="133" y="416" width="1" height="2" fill="#000000" />
<rect x="244" y="416" width="2" height="5" fill="#000000" />
<rect x="313" y="416" width="1" height="1" fill="#000000" />
<rect x="202" y="417" width="2" height="7" fill="#000000" />
<rect x="244" y="421" width="1" height="6" fill="#000000" />
<rect x="203" y="424" width="1" height="8" fill="#000000" />
<rect x="235" y="433" width="8" height="3" fill="#000000" />
<rect x="205" y="436" width="8" height="1" fill="#000000" />
<rect x="235" y="436" width="7" height="1" fill="#000000" />
</svg>